<svg width="314" height="134" viewBox="0 0 314 134" fill="none" xmlns="http://www.w3.org/2000/svg">
<path d="M9.54144 18.0234H304.459V115.977H9.54144V18.0234Z" fill="#FFB700"/>
<path d="M19.0829 0H294.917V9.40351H19.0829V0Z" fill="black"/>
<path d="M19.0829 124.596H294.917V134H19.0829V124.596Z" fill="black"/>
<path d="M9.54144 9.40351H19.0829V18.0234H9.54144V9.40351Z" fill="black"/>
<path d="M294.917 9.40351H304.459V18.0234H294.917V9.40351Z" fill="black"/>
<path d="M294.917 115.977H304.459V124.596H294.917V115.977Z" fill="black"/>
<path d="M9.54144 115.977H19.0829V124.596H9.54144V115.977Z" fill="black"/>
<path d="M0 18.0234H9.54144V115.977H0V18.0234Z" fill="black"/>
<path d="M304.459 18.0234H314V115.977H304.459V18.0234Z" fill="black"/>
<path d="M19.0829 9.40351H294.917V18.0234H19.0829V9.40351Z" fill="#FFD66F"/>
<path d="M9.54144 18.0234H19.0829V26.6433H9.54144V18.0234Z" fill="#FFD66F"/>
<path d="M9.54144 98.7368H19.0829V107.357H9.54144V98.7368Z" fill="#FFD66F"/>
<path d="M19.0829 107.357H28.6243V115.977H19.0829V107.357Z" fill="#FFD66F"/>
<path d="M19.0829 18.0234H28.6243V26.6433H19.0829V18.0234Z" fill="#8C6607"/>
<path d="M294.917 107.357H304.459V115.977H294.917V107.357Z" fill="#8C6607"/>
<path d="M285.376 18.0234H294.917V26.6433H285.376V18.0234Z" fill="#8C6607"/>
<path d="M294.917 26.6433H304.459V35.2632H294.917V26.6433Z" fill="#8C6607"/>
<path d="M294.917 98.7368H304.459V107.357H294.917V98.7368Z" fill="#FFD66F"/>
<path d="M294.917 18.0234H304.459V26.6433H294.917V18.0234Z" fill="#FFD66F"/>
<path d="M285.376 107.357H294.917V115.977H285.376V107.357Z" fill="#FFD66F"/>
<path d="M19.0829 115.977H294.917V124.596H19.0829V115.977Z" fill="#8C6607"/>
<path d="M9.54144 107.357H19.0829V115.977H9.54144V107.357Z" fill="#8C6607"/>
<path d="M9.54144 26.6433H19.0829V35.2632H9.54144V26.6433Z" fill="#8C6607"/>
<g filter="url(#filter0_ii_402_1615)">
<path d="M124.588 38.4118V42.7647H128.941V60.1765H124.588V64.5294H128.941V86.2941H124.588V90.6471H120.235V95H72.3529V90.6471H68V38.4118H72.3529V47.1176H76.7059V42.7647H81.0588V38.4118H72.3529V34.0588H120.235V38.4118H124.588ZM111.529 55.8235V47.1176H98.4706V55.8235H111.529ZM98.4706 77.5882H111.529V68.8824H98.4706V77.5882ZM185.546 42.7647V47.1176H189.899V86.2941H185.546V90.6471H181.193V95H146.37V90.6471H142.017V86.2941H137.664V47.1176H142.017V55.8235H146.37V51.4706H150.723V47.1176H142.017V42.7647H159.429V47.1176H163.782V77.5882H172.488V47.1176H176.841V42.7647H185.546ZM246.466 42.7647V47.1176H250.819V55.8235H246.466V60.1765H242.113V64.5294H237.76V90.6471H233.408V95H220.349V90.6471H215.996V68.8824H211.643V64.5294H207.29V60.1765H202.937V55.8235H207.29V51.4706H211.643V47.1176H202.937V42.7647H215.996V47.1176H220.349V51.4706H229.055V47.1176H233.408V42.7647H246.466ZM202.937 47.1176V55.8235H198.584V47.1176H202.937Z" fill="black"/>
</g>
<defs>
<filter id="filter0_ii_402_1615" x="68" y="34.0588" width="182.818" height="60.9412" filterUnits="userSpaceOnUse" color-interpolation-filters="sRGB">
<feFlood flood-opacity="0" result="BackgroundImageFix"/>
<feBlend mode="normal" in="SourceGraphic" in2="BackgroundImageFix" result="shape"/>
<feColorMatrix in="SourceAlpha" type="matrix" values="0 0 0 0 0 0 0 0 0 0 0 0 0 0 0 0 0 0 127 0" result="hardAlpha"/>
<feOffset dy="3.70683"/>
<feComposite in2="hardAlpha" operator="arithmetic" k2="-1" k3="1"/>
<feColorMatrix type="matrix" values="0 0 0 0 1 0 0 0 0 1 0 0 0 0 0 0 0 0 1 0"/>
<feBlend mode="normal" in2="shape" result="effect1_innerShadow_402_1615"/>
<feColorMatrix in="SourceAlpha" type="matrix" values="0 0 0 0 0 0 0 0 0 0 0 0 0 0 0 0 0 0 127 0" result="hardAlpha"/>
<feOffset dy="-3.70683"/>
<feComposite in2="hardAlpha" operator="arithmetic" k2="-1" k3="1"/>
<feColorMatrix type="matrix" values="0 0 0 0 1 0 0 0 0 0 0 0 0 0 0 0 0 0 1 0"/>
<feBlend mode="normal" in2="effect1_innerShadow_402_1615" result="effect2_innerShadow_402_1615"/>
</filter>
</defs>
</svg>
