<svg width="111" height="29" viewBox="0 0 111 29" fill="none" xmlns="http://www.w3.org/2000/svg">
<path d="M10.6124 8.77344L18.2366 21.534H2.98807L10.6124 8.77344Z" fill="white"/>
<path d="M23.275 15.3047L17.0214 4.99241L29.5287 4.99241L23.275 15.3047Z" fill="white"/>
<path d="M98.6328 14.0289C98.6328 12.8487 98.8988 11.8098 99.4307 10.9122C99.9792 10.0146 100.719 9.31651 101.65 8.81785C102.581 8.30256 103.636 8.04492 104.816 8.04492C105.996 8.04492 107.044 8.30256 107.958 8.81785C108.889 9.31651 109.628 10.0146 110.177 10.9122C110.725 11.8098 111 12.8487 111 14.0289C111 15.1924 110.725 16.2313 110.177 17.1455C109.628 18.0431 108.889 18.7495 107.958 19.2648C107.044 19.7635 105.996 20.0128 104.816 20.0128C103.636 20.0128 102.581 19.7635 101.65 19.2648C100.719 18.7495 99.9792 18.0431 99.4307 17.1455C98.8988 16.2313 98.6328 15.1924 98.6328 14.0289ZM101.4 14.0289C101.4 14.7436 101.55 15.3752 101.849 15.9238C102.148 16.4557 102.556 16.8795 103.071 17.1954C103.586 17.4946 104.168 17.6442 104.816 17.6442C105.448 17.6442 106.021 17.4946 106.537 17.1954C107.068 16.8795 107.484 16.4557 107.783 15.9238C108.082 15.3752 108.232 14.7436 108.232 14.0289C108.232 13.3141 108.082 12.6825 107.783 12.1339C107.484 11.5854 107.068 11.1616 106.537 10.8624C106.021 10.5632 105.448 10.4136 104.816 10.4136C104.168 10.4136 103.586 10.5632 103.071 10.8624C102.556 11.1616 102.148 11.5854 101.849 12.1339C101.55 12.6825 101.4 13.3141 101.4 14.0289Z" fill="white"/>
<path d="M86.2891 8.29541H89.2312L92.2231 15.7005L95.2151 8.29541H98.1821L92.2231 20.8118L86.2891 8.29541Z" fill="white"/>
<path d="M73.4785 14.0289C73.4785 12.8487 73.7445 11.8098 74.2764 10.9122C74.8249 10.0146 75.5646 9.31651 76.4954 8.81785C77.4262 8.30256 78.4817 8.04492 79.6619 8.04492C80.8421 8.04492 81.8893 8.30256 82.8035 8.81785C83.7343 9.31651 84.474 10.0146 85.0225 10.9122C85.5711 11.8098 85.8453 12.8487 85.8453 14.0289C85.8453 15.1924 85.5711 16.2313 85.0225 17.1455C84.474 18.0431 83.7343 18.7495 82.8035 19.2648C81.8893 19.7635 80.8421 20.0128 79.6619 20.0128C78.4817 20.0128 77.4262 19.7635 76.4954 19.2648C75.5646 18.7495 74.8249 18.0431 74.2764 17.1455C73.7445 16.2313 73.4785 15.1924 73.4785 14.0289ZM76.2461 14.0289C76.2461 14.7436 76.3957 15.3752 76.6949 15.9238C76.9941 16.4557 77.4013 16.8795 77.9166 17.1954C78.4319 17.4946 79.0137 17.6442 79.6619 17.6442C80.2936 17.6442 80.867 17.4946 81.3823 17.1954C81.9142 16.8795 82.3298 16.4557 82.6289 15.9238C82.9281 15.3752 83.0777 14.7436 83.0777 14.0289C83.0777 13.3141 82.9281 12.6825 82.6289 12.1339C82.3298 11.5854 81.9142 11.1616 81.3823 10.8624C80.867 10.5632 80.2936 10.4136 79.6619 10.4136C79.0137 10.4136 78.4319 10.5632 77.9166 10.8624C77.4013 11.1616 76.9941 11.5854 76.6949 12.1339C76.3957 12.6825 76.2461 13.3141 76.2461 14.0289Z" fill="white"/>
<path d="M68.1458 12.7822C68.1458 11.9345 67.9713 11.2945 67.6222 10.8624C67.2732 10.4302 66.7329 10.2141 66.0016 10.2141C65.5029 10.2141 65.0624 10.3221 64.6801 10.5382C64.2978 10.7377 63.9986 11.0369 63.7825 11.4358C63.5664 11.8181 63.4584 12.2669 63.4584 12.7822V19.7635H60.7656V8.29425H63.4584V10.0645C63.8241 9.383 64.2895 8.87602 64.8546 8.54358C65.4364 8.21114 66.1262 8.04492 66.9241 8.04492C68.2206 8.04492 69.2096 8.44385 69.8911 9.24171C70.5726 10.0229 70.9134 11.1034 70.9134 12.483V19.7635H68.1458V12.7822Z" fill="white"/>
<path d="M50.7114 15.9986C51.0771 16.3975 51.4428 16.7466 51.8085 17.0458C52.1908 17.3283 52.5731 17.5444 52.9554 17.694C53.3377 17.827 53.72 17.8935 54.1023 17.8935C54.5843 17.8935 54.9583 17.7854 55.2243 17.5694C55.5069 17.3533 55.6482 17.0541 55.6482 16.6718C55.6482 16.3393 55.5401 16.0567 55.324 15.824C55.1079 15.5747 54.8087 15.3669 54.4264 15.2007C54.0441 15.0179 53.5953 14.835 53.08 14.6522C52.5648 14.4527 52.0495 14.22 51.5342 13.9541C51.0355 13.6715 50.62 13.3058 50.2875 12.857C49.9717 12.4082 49.8138 11.8431 49.8138 11.1616C49.8138 10.4634 49.9883 9.88166 50.3374 9.41624C50.7031 8.95082 51.1851 8.61007 51.7835 8.39398C52.3985 8.16128 53.0551 8.04492 53.7532 8.04492C54.3849 8.04492 54.975 8.13634 55.5235 8.31919C56.0886 8.50203 56.5956 8.74305 57.0444 9.04224C57.4932 9.34144 57.8755 9.68219 58.1913 10.0645L56.6953 11.6602C56.313 11.2114 55.8559 10.8457 55.324 10.5632C54.7921 10.2806 54.2436 10.1393 53.6784 10.1393C53.2961 10.1393 52.9803 10.2224 52.731 10.3886C52.4817 10.5548 52.357 10.7959 52.357 11.1117C52.357 11.3776 52.465 11.6187 52.6811 11.8347C52.9138 12.0342 53.213 12.2171 53.5787 12.3833C53.961 12.5495 54.3849 12.724 54.8503 12.9069C55.4819 13.1562 56.0637 13.4305 56.5956 13.7297C57.1275 14.0289 57.5514 14.3945 57.8672 14.8267C58.1996 15.2589 58.3659 15.824 58.3659 16.5222C58.3659 17.6026 57.9919 18.4753 57.2439 19.1401C56.5125 19.7884 55.5152 20.1125 54.2519 20.1125C53.4707 20.1125 52.7476 19.9962 52.0827 19.7635C51.4345 19.5141 50.861 19.1983 50.3623 18.816C49.8803 18.4171 49.4731 18.0015 49.1406 17.5694L50.7114 15.9986Z" fill="white"/>
<path d="M35.2715 14.0289C35.2715 12.8487 35.5374 11.8098 36.0693 10.9122C36.6179 10.0146 37.3576 9.31651 38.2884 8.81785C39.2192 8.30256 40.2747 8.04492 41.4549 8.04492C42.6351 8.04492 43.6822 8.30256 44.5965 8.81785C45.5273 9.31651 46.267 10.0146 46.8155 10.9122C47.364 11.8098 47.6383 12.8487 47.6383 14.0289C47.6383 15.1924 47.364 16.2313 46.8155 17.1455C46.267 18.0431 45.5273 18.7495 44.5965 19.2648C43.6822 19.7635 42.6351 20.0128 41.4549 20.0128C40.2747 20.0128 39.2192 19.7635 38.2884 19.2648C37.3576 18.7495 36.6179 18.0431 36.0693 17.1455C35.5374 16.2313 35.2715 15.1924 35.2715 14.0289ZM38.0391 14.0289C38.0391 14.7436 38.1887 15.3752 38.4878 15.9238C38.787 16.4557 39.1943 16.8795 39.7096 17.1954C40.2249 17.4946 40.8066 17.6442 41.4549 17.6442C42.0865 17.6442 42.66 17.4946 43.1753 17.1954C43.7072 16.8795 44.1227 16.4557 44.4219 15.9238C44.7211 15.3752 44.8707 14.7436 44.8707 14.0289C44.8707 13.3141 44.7211 12.6825 44.4219 12.1339C44.1227 11.5854 43.7072 11.1616 43.1753 10.8624C42.66 10.5632 42.0865 10.4136 41.4549 10.4136C40.8066 10.4136 40.2249 10.5632 39.7096 10.8624C39.1943 11.1616 38.787 11.5854 38.4878 12.1339C38.1887 12.6825 38.0391 13.3141 38.0391 14.0289Z" fill="white"/>
</svg>
